<svg xmlns="http://www.w3.org/2000/svg" viewBox="0 0 1600 1100">
  <defs>
    <linearGradient id="bg" x1="0" y1="0" x2="1" y2="1">
      <stop offset="0" stop-color="#f7f7f8"/>
      <stop offset="1" stop-color="#e7e8ee"/>
    </linearGradient>
    <filter id="soft" x="-20%" y="-20%" width="140%" height="140%">
      <feGaussianBlur in="SourceAlpha" stdDeviation="10" result="b"/>
      <feOffset dx="0" dy="10" result="o"/>
      <feColorMatrix in="o" type="matrix" values="0 0 0 0 0  0 0 0 0 0  0 0 0 0 0  0 0 0 .18 0" result="s"/>
      <feMerge>
        <feMergeNode in="s"/>
        <feMergeNode in="SourceGraphic"/>
      </feMerge>
    </filter>
  </defs>

  <rect width="1600" height="1100" fill="url(#bg)"/>

  <g filter="url(#soft)">
    <rect x="170" y="170" rx="44" ry="44" width="1260" height="760" fill="#ffffff"/>
    <rect x="240" y="240" rx="26" ry="26" width="520" height="620" fill="#f5f6f8"/>
    <rect x="800" y="240" rx="26" ry="26" width="520" height="300" fill="#eef0f4"/>
    <rect x="800" y="560" rx="26" ry="26" width="240" height="300" fill="#e5e7eb"/>
    <rect x="1080" y="560" rx="26" ry="26" width="240" height="300" fill="#d1d5db"/>

    <circle cx="340" cy="360" r="90" fill="#d1d5db"/>
    <circle cx="520" cy="520" r="110" fill="#cbd5e1"/>
    <rect x="300" y="640" rx="22" ry="22" width="400" height="160" fill="#ffffff" opacity=".85"/>

    <rect x="840" y="280" rx="18" ry="18" width="120" height="120" fill="#ffffff"/>
    <rect x="980" y="280" rx="18" ry="18" width="120" height="120" fill="#f3f4f6"/>
    <rect x="1120" y="280" rx="18" ry="18" width="160" height="120" fill="#e5e7eb"/>
  </g>
</svg>
