<svg xmlns="http://www.w3.org/2000/svg" viewBox="0 0 1600 1100">
  <defs>
    <linearGradient id="bg" x1="0" y1="0" x2="1" y2="1">
      <stop offset="0" stop-color="#f7f7f8"/>
      <stop offset="0.55" stop-color="#eef0f4"/>
      <stop offset="1" stop-color="#d7d9e1"/>
    </linearGradient>
    <linearGradient id="shadow" x1="0" y1="0" x2="0" y2="1">
      <stop offset="0" stop-color="#0c0d10" stop-opacity=".0"/>
      <stop offset="1" stop-color="#0c0d10" stop-opacity=".35"/>
    </linearGradient>
    <filter id="soft" x="-20%" y="-20%" width="140%" height="140%">
      <feGaussianBlur in="SourceAlpha" stdDeviation="12" result="b"/>
      <feOffset dx="0" dy="10" result="o"/>
      <feColorMatrix in="o" type="matrix" values="0 0 0 0 0  0 0 0 0 0  0 0 0 0 0  0 0 0 .28 0" result="s"/>
      <feMerge>
        <feMergeNode in="s"/>
        <feMergeNode in="SourceGraphic"/>
      </feMerge>
    </filter>
  </defs>

  <rect width="1600" height="1100" fill="url(#bg)"/>
  <rect x="0" y="0" width="1600" height="720" fill="#f3f4f6"/>
  <rect x="0" y="720" width="1600" height="380" fill="#e5e7eb"/>

  <!-- bancada -->
  <g filter="url(#soft)">
    <rect x="180" y="520" rx="60" ry="60" width="1240" height="340" fill="#ffffff"/>
    <rect x="240" y="580" rx="26" ry="26" width="520" height="110" fill="#f5f6f8"/>
    <rect x="780" y="580" rx="26" ry="26" width="580" height="110" fill="#f5f6f8"/>
    <rect x="240" y="710" rx="26" ry="26" width="1120" height="100" fill="#f5f6f8"/>
  </g>

  <!-- prateleiras -->
  <g filter="url(#soft)">
    <rect x="220" y="160" rx="44" ry="44" width="1160" height="300" fill="#ffffff"/>
    <rect x="280" y="220" rx="24" ry="24" width="480" height="90" fill="#f5f6f8"/>
    <rect x="780" y="220" rx="24" ry="24" width="540" height="90" fill="#f5f6f8"/>
    <rect x="280" y="330" rx="24" ry="24" width="1040" height="90" fill="#f5f6f8"/>
  </g>

  <rect x="0" y="650" width="1600" height="450" fill="url(#shadow)"/>
</svg>

