<svg xmlns="http://www.w3.org/2000/svg" viewBox="0 0 1600 1100">
  <defs>
    <linearGradient id="bg" x1="0" y1="0" x2="1" y2="1">
      <stop offset="0" stop-color="#f7f7f8"/>
      <stop offset="0.6" stop-color="#eceef2"/>
      <stop offset="1" stop-color="#d7d9e1"/>
    </linearGradient>
    <linearGradient id="shadow" x1="0" y1="0" x2="0" y2="1">
      <stop offset="0" stop-color="#0c0d10" stop-opacity=".0"/>
      <stop offset="1" stop-color="#0c0d10" stop-opacity=".35"/>
    </linearGradient>
    <filter id="soft" x="-20%" y="-20%" width="140%" height="140%">
      <feGaussianBlur in="SourceAlpha" stdDeviation="12" result="b"/>
      <feOffset dx="0" dy="10" result="o"/>
      <feColorMatrix in="o" type="matrix" values="0 0 0 0 0  0 0 0 0 0  0 0 0 0 0  0 0 0 .28 0" result="s"/>
      <feMerge>
        <feMergeNode in="s"/>
        <feMergeNode in="SourceGraphic"/>
      </feMerge>
    </filter>
  </defs>

  <rect width="1600" height="1100" fill="url(#bg)"/>
  <rect x="0" y="0" width="1600" height="720" fill="#f3f4f6"/>
  <rect x="0" y="720" width="1600" height="380" fill="#e5e7eb"/>

  <!-- painel / TV -->
  <g filter="url(#soft)">
    <rect x="180" y="180" rx="44" ry="44" width="1240" height="420" fill="#ffffff"/>
    <rect x="240" y="240" rx="30" ry="30" width="620" height="300" fill="#f5f6f8"/>
    <rect x="910" y="240" rx="30" ry="30" width="450" height="140" fill="#f5f6f8"/>
    <rect x="910" y="400" rx="30" ry="30" width="450" height="140" fill="#f5f6f8"/>
  </g>

  <!-- sofá -->
  <g filter="url(#soft)">
    <rect x="260" y="640" rx="60" ry="60" width="860" height="220" fill="#ffffff"/>
    <rect x="320" y="690" rx="28" ry="28" width="240" height="120" fill="#f5f6f8"/>
    <rect x="580" y="690" rx="28" ry="28" width="240" height="120" fill="#f5f6f8"/>
    <rect x="840" y="690" rx="28" ry="28" width="220" height="120" fill="#f5f6f8"/>
  </g>

  <!-- mesa de centro -->
  <g filter="url(#soft)">
    <rect x="1180" y="700" rx="40" ry="40" width="240" height="160" fill="#ffffff"/>
    <rect x="1210" y="740" rx="20" ry="20" width="180" height="80" fill="#f5f6f8"/>
  </g>

  <rect x="0" y="650" width="1600" height="450" fill="url(#shadow)"/>
</svg>

