<svg xmlns="http://www.w3.org/2000/svg" viewBox="0 0 1600 1100">
  <defs>
    <linearGradient id="bg" x1="0" y1="0" x2="1" y2="1">
      <stop offset="0" stop-color="#f7f7f8"/>
      <stop offset="0.55" stop-color="#e9eaee"/>
      <stop offset="1" stop-color="#cfd1d9"/>
    </linearGradient>
    <linearGradient id="shadow" x1="0" y1="0" x2="0" y2="1">
      <stop offset="0" stop-color="#0c0d10" stop-opacity=".0"/>
      <stop offset="1" stop-color="#0c0d10" stop-opacity=".35"/>
    </linearGradient>
    <filter id="soft" x="-20%" y="-20%" width="140%" height="140%">
      <feGaussianBlur in="SourceAlpha" stdDeviation="12" result="b"/>
      <feOffset dx="0" dy="10" result="o"/>
      <feColorMatrix in="o" type="matrix" values="0 0 0 0 0  0 0 0 0 0  0 0 0 0 0  0 0 0 .28 0" result="s"/>
      <feMerge>
        <feMergeNode in="s"/>
        <feMergeNode in="SourceGraphic"/>
      </feMerge>
    </filter>
  </defs>

  <rect width="1600" height="1100" fill="url(#bg)"/>
  <rect x="0" y="0" width="1600" height="1100" fill="none"/>

  <!-- parede -->
  <rect x="0" y="0" width="1600" height="720" fill="#f3f4f6"/>
  <!-- piso -->
  <rect x="0" y="720" width="1600" height="380" fill="#e5e7eb"/>

  <!-- módulos superiores -->
  <g filter="url(#soft)">
    <rect x="210" y="160" rx="28" ry="28" width="1180" height="160" fill="#ffffff"/>
    <rect x="250" y="200" rx="18" ry="18" width="260" height="80" fill="#f5f6f8"/>
    <rect x="540" y="200" rx="18" ry="18" width="260" height="80" fill="#f5f6f8"/>
    <rect x="830" y="200" rx="18" ry="18" width="260" height="80" fill="#f5f6f8"/>
    <rect x="1120" y="200" rx="18" ry="18" width="230" height="80" fill="#f5f6f8"/>
  </g>

  <!-- bancada -->
  <g filter="url(#soft)">
    <rect x="190" y="430" rx="40" ry="40" width="1220" height="360" fill="#ffffff"/>
    <rect x="230" y="470" rx="24" ry="24" width="520" height="110" fill="#f5f6f8"/>
    <rect x="770" y="470" rx="24" ry="24" width="600" height="110" fill="#f5f6f8"/>
    <rect x="230" y="600" rx="24" ry="24" width="420" height="150" fill="#f5f6f8"/>
    <rect x="670" y="600" rx="24" ry="24" width="300" height="150" fill="#f5f6f8"/>
    <rect x="990" y="600" rx="24" ry="24" width="380" height="150" fill="#f5f6f8"/>
  </g>

  <!-- janela -->
  <g filter="url(#soft)">
    <rect x="1010" y="120" rx="26" ry="26" width="380" height="250" fill="#ffffff"/>
    <rect x="1040" y="150" rx="18" ry="18" width="320" height="190" fill="#e9eef6"/>
    <path d="M1040 245h320" stroke="#d1d5db" stroke-width="6" stroke-linecap="round"/>
  </g>

  <!-- sombra inferior para “foto” -->
  <rect x="0" y="650" width="1600" height="450" fill="url(#shadow)"/>
</svg>

