<svg xmlns="http://www.w3.org/2000/svg" viewBox="0 0 1600 1100">
  <defs>
    <linearGradient id="bg" x1="0" y1="0" x2="1" y2="1">
      <stop offset="0" stop-color="#f7f7f8"/>
      <stop offset="0.6" stop-color="#eef0f4"/>
      <stop offset="1" stop-color="#d6d8e0"/>
    </linearGradient>
    <linearGradient id="shadow" x1="0" y1="0" x2="0" y2="1">
      <stop offset="0" stop-color="#0c0d10" stop-opacity=".0"/>
      <stop offset="1" stop-color="#0c0d10" stop-opacity=".35"/>
    </linearGradient>
    <filter id="soft" x="-20%" y="-20%" width="140%" height="140%">
      <feGaussianBlur in="SourceAlpha" stdDeviation="12" result="b"/>
      <feOffset dx="0" dy="10" result="o"/>
      <feColorMatrix in="o" type="matrix" values="0 0 0 0 0  0 0 0 0 0  0 0 0 0 0  0 0 0 .28 0" result="s"/>
      <feMerge>
        <feMergeNode in="s"/>
        <feMergeNode in="SourceGraphic"/>
      </feMerge>
    </filter>
  </defs>

  <rect width="1600" height="1100" fill="url(#bg)"/>
  <rect x="0" y="0" width="1600" height="720" fill="#f3f4f6"/>
  <rect x="0" y="720" width="1600" height="380" fill="#e5e7eb"/>

  <!-- módulos -->
  <g filter="url(#soft)">
    <rect x="140" y="170" rx="44" ry="44" width="1320" height="620" fill="#ffffff"/>
    <rect x="210" y="240" rx="28" ry="28" width="360" height="480" fill="#f5f6f8"/>
    <rect x="620" y="240" rx="28" ry="28" width="360" height="480" fill="#f5f6f8"/>
    <rect x="1030" y="240" rx="28" ry="28" width="360" height="480" fill="#f5f6f8"/>

    <!-- “cabideiro” -->
    <rect x="250" y="300" width="280" height="10" rx="5" fill="#d1d5db"/>
    <rect x="660" y="300" width="280" height="10" rx="5" fill="#d1d5db"/>
    <rect x="1070" y="300" width="280" height="10" rx="5" fill="#d1d5db"/>

    <!-- gavetas -->
    <rect x="250" y="560" rx="18" ry="18" width="280" height="60" fill="#edf0f3"/>
    <rect x="250" y="640" rx="18" ry="18" width="280" height="60" fill="#edf0f3"/>
    <rect x="660" y="560" rx="18" ry="18" width="280" height="60" fill="#edf0f3"/>
    <rect x="660" y="640" rx="18" ry="18" width="280" height="60" fill="#edf0f3"/>
    <rect x="1070" y="560" rx="18" ry="18" width="280" height="60" fill="#edf0f3"/>
    <rect x="1070" y="640" rx="18" ry="18" width="280" height="60" fill="#edf0f3"/>
  </g>

  <rect x="0" y="650" width="1600" height="450" fill="url(#shadow)"/>
</svg>

