<svg xmlns="http://www.w3.org/2000/svg" viewBox="0 0 1600 1100">
  <defs>
    <linearGradient id="bg" x1="0" y1="0" x2="1" y2="1">
      <stop offset="0" stop-color="#f7f7f8"/>
      <stop offset="0.55" stop-color="#eef0f4"/>
      <stop offset="1" stop-color="#d7d9e1"/>
    </linearGradient>
    <linearGradient id="shadow" x1="0" y1="0" x2="0" y2="1">
      <stop offset="0" stop-color="#0c0d10" stop-opacity=".0"/>
      <stop offset="1" stop-color="#0c0d10" stop-opacity=".35"/>
    </linearGradient>
    <filter id="soft" x="-20%" y="-20%" width="140%" height="140%">
      <feGaussianBlur in="SourceAlpha" stdDeviation="12" result="b"/>
      <feOffset dx="0" dy="10" result="o"/>
      <feColorMatrix in="o" type="matrix" values="0 0 0 0 0  0 0 0 0 0  0 0 0 0 0  0 0 0 .28 0" result="s"/>
      <feMerge>
        <feMergeNode in="s"/>
        <feMergeNode in="SourceGraphic"/>
      </feMerge>
    </filter>
  </defs>

  <rect width="1600" height="1100" fill="url(#bg)"/>
  <rect x="0" y="0" width="1600" height="720" fill="#f3f4f6"/>
  <rect x="0" y="720" width="1600" height="380" fill="#e5e7eb"/>

  <!-- espelho -->
  <g filter="url(#soft)">
    <rect x="920" y="140" rx="52" ry="52" width="520" height="520" fill="#ffffff"/>
    <rect x="970" y="200" rx="40" ry="40" width="420" height="400" fill="#e9eef6"/>
  </g>

  <!-- gabinete -->
  <g filter="url(#soft)">
    <rect x="200" y="540" rx="60" ry="60" width="980" height="320" fill="#ffffff"/>
    <rect x="260" y="600" rx="26" ry="26" width="560" height="110" fill="#f5f6f8"/>
    <rect x="840" y="600" rx="26" ry="26" width="280" height="110" fill="#f5f6f8"/>
    <rect x="260" y="730" rx="26" ry="26" width="860" height="90" fill="#f5f6f8"/>
  </g>

  <!-- box -->
  <g filter="url(#soft)">
    <rect x="180" y="160" rx="44" ry="44" width="640" height="340" fill="#ffffff"/>
    <rect x="230" y="210" rx="32" ry="32" width="540" height="240" fill="#eef2f7"/>
    <path d="M230 330h540" stroke="#d1d5db" stroke-width="6" stroke-linecap="round"/>
  </g>

  <rect x="0" y="650" width="1600" height="450" fill="url(#shadow)"/>
</svg>

