<svg xmlns="http://www.w3.org/2000/svg" viewBox="0 0 1600 1100">
  <defs>
    <linearGradient id="bg" x1="0" y1="0" x2="1" y2="1">
      <stop offset="0" stop-color="#f7f7f8"/>
      <stop offset="0.55" stop-color="#eef0f4"/>
      <stop offset="1" stop-color="#d9dbe3"/>
    </linearGradient>
    <linearGradient id="shadow" x1="0" y1="0" x2="0" y2="1">
      <stop offset="0" stop-color="#0c0d10" stop-opacity=".0"/>
      <stop offset="1" stop-color="#0c0d10" stop-opacity=".35"/>
    </linearGradient>
    <filter id="soft" x="-20%" y="-20%" width="140%" height="140%">
      <feGaussianBlur in="SourceAlpha" stdDeviation="12" result="b"/>
      <feOffset dx="0" dy="10" result="o"/>
      <feColorMatrix in="o" type="matrix" values="0 0 0 0 0  0 0 0 0 0  0 0 0 0 0  0 0 0 .28 0" result="s"/>
      <feMerge>
        <feMergeNode in="s"/>
        <feMergeNode in="SourceGraphic"/>
      </feMerge>
    </filter>
  </defs>

  <rect width="1600" height="1100" fill="url(#bg)"/>
  <rect x="0" y="0" width="1600" height="720" fill="#f3f4f6"/>
  <rect x="0" y="720" width="1600" height="380" fill="#e5e7eb"/>

  <!-- armário -->
  <g filter="url(#soft)">
    <rect x="160" y="170" rx="44" ry="44" width="520" height="520" fill="#ffffff"/>
    <rect x="210" y="230" rx="26" ry="26" width="200" height="380" fill="#f5f6f8"/>
    <rect x="430" y="230" rx="26" ry="26" width="200" height="380" fill="#f5f6f8"/>
  </g>

  <!-- cama -->
  <g filter="url(#soft)">
    <rect x="730" y="420" rx="60" ry="60" width="720" height="420" fill="#ffffff"/>
    <rect x="790" y="470" rx="34" ry="34" width="600" height="140" fill="#f5f6f8"/>
    <rect x="790" y="630" rx="34" ry="34" width="280" height="150" fill="#f5f6f8"/>
    <rect x="1110" y="630" rx="34" ry="34" width="280" height="150" fill="#f5f6f8"/>
  </g>

  <!-- cabeceira -->
  <g filter="url(#soft)">
    <rect x="730" y="270" rx="50" ry="50" width="720" height="140" fill="#ffffff"/>
    <rect x="770" y="305" rx="24" ry="24" width="640" height="70" fill="#f5f6f8"/>
  </g>

  <rect x="0" y="650" width="1600" height="450" fill="url(#shadow)"/>
</svg>

